<svg width="24" height="24" viewBox="0 0 24 24" fill="none" xmlns="http://www.w3.org/2000/svg">
<path d="M14.43 13.23C15.41 12.09 16 10.61 16 9C16 5.41 13.09 2.5 9.5 2.5C5.91 2.5 3 5.41 3 9C3 12.59 5.91 15.5 9.5 15.5C11.11 15.5 12.59 14.91 13.73 13.93L12.5408 12.3206C12.1939 12.7137 11.1 13.5 9.5 13.5C7.01 13.5 5 11.49 5 9C5 6.51 7.01 4.5 9.5 4.5C11.99 4.5 14 6.51 14 9C14.0259 9.53792 13.8474 10.8754 12.9257 11.9219L14.43 13.23Z" fill="black"/>
<path d="M19.01 19.99L20.5 18.5L15.51 13.5H14V15L19.01 19.99Z" fill="black"/>
</svg>
