<svg width="100" height="57" viewBox="0 0 100 57" fill="none" xmlns="http://www.w3.org/2000/svg">
<path fill-rule="evenodd" clip-rule="evenodd" d="M25.641 17.2753C9.2647 27.4639 4.12446 36.5079 0 56.7404L100 57C96.509 38.3176 92.7339 28.8326 74.359 17.2753L82.8205 2.4759C83.0769 2.12972 83.3333 1.22964 82.3077 0.3988C81.2821 -0.432044 80.3419 0.225707 80 0.658438L71.2821 15.9771C54.1988 9.44323 44.9059 9.81508 28.7179 15.9771C25.9829 11.044 20.359 1.07387 19.7436 0.658444C19.6937 0.62476 19.646 0.592168 19.6 0.560811C18.9379 0.10876 18.6514 -0.0867882 17.6923 0.398805C16.8718 0.814227 17.0085 1.95664 17.1795 2.47591L25.641 17.2753ZM26.6667 34.1518C24.0911 34.8612 23.2677 35.8459 22.8205 38.5657C23.6833 41.4355 24.6971 42.0098 26.6667 42.7199C29.586 42.3179 30.424 41.2914 31.0256 38.5657C30.6724 35.4753 29.7965 34.4304 26.6667 34.1518ZM68.7179 38.306C69.4366 35.5353 70.3138 34.5355 73.0769 34.1518C76.0177 34.7711 76.6494 35.9575 77.1795 38.5657C76.5179 41.1007 75.8948 42.3008 72.8205 42.7199C70.4686 42.2686 69.309 41.746 68.7179 38.306Z" fill="white"/>
</svg>
