<svg width="100" height="57" viewBox="0 0 100 57" fill="none" xmlns="http://www.w3.org/2000/svg">
<path fill-rule="evenodd" clip-rule="evenodd" d="M25.641 17.1331C9.2647 27.3216 4.12446 36.3657 0 56.5981L100 56.8578C96.509 38.1754 92.7339 28.6904 74.359 17.1331L77 1.69624C77 0.696246 76.6493 0.412683 76 0.196246C75.3507 -0.0201907 74.5 -0.303754 74 0.857757L71.2821 15.8349C54.1988 9.301 44.9059 9.67284 28.7179 15.8349C25.9829 10.9017 26 2.43659 26 1.69624C26 1.63604 26 1.39151 26 1.19624C26 -0.0151268 24.5 0.196243 24.5 0.196243C24.5 0.196243 23.5 0.196243 23.5 1.19624C23.5 1.19624 23.6467 5.44366 24 8.35775C24.4196 11.8188 25.641 17.1331 25.641 17.1331ZM27 37.3578C25.6191 37.3726 22.8205 37.3654 22.8205 38.4234C22.8205 39.4814 25 39.3578 27 39.3578C29 39.3578 31.0256 39.4891 31.0256 38.4234C31.0256 37.3578 28.3809 37.3429 27 37.3578ZM68.7179 38.1638C68.7179 37.1174 71.5 37.3578 72.8205 37.3578C74.141 37.3578 77.1795 37.2295 77.1795 38.4234C77.1795 39.6174 75.7217 39.3578 72.8205 39.3578C69.9193 39.3578 68.7179 39.2102 68.7179 38.1638Z" fill="white"/>
</svg>
